<svg xmlns="http://www.w3.org/2000/svg" width="200" height="200" viewBox="0 0 200 200" version="1.1">
	<path d="M 188 85.500 C 188 87.855, 188.305 87.997, 193.250 87.955 L 198.500 87.910 194 85.500 C 188.323 82.460, 188 82.460, 188 85.500 M 151.227 115.802 C 148.877 115.975, 147.216 116.541, 147.536 117.059 C 147.856 117.576, 147.416 118, 146.559 118 C 145.702 118, 145 118.477, 145 119.059 C 145 119.641, 145.520 119.797, 146.155 119.405 C 146.893 118.948, 147.037 119.132, 146.553 119.914 C 146.138 120.586, 145.240 120.922, 144.558 120.661 C 143.876 120.399, 142.731 120.548, 142.013 120.992 C 141.036 121.596, 141.588 122.704, 144.205 125.399 C 146.128 127.380, 148.152 129, 148.703 129 C 149.253 129, 151.116 130.350, 152.843 132 C 154.569 133.650, 156.229 135, 156.531 135 C 157.298 135, 156.903 116.024, 156.129 115.727 C 155.783 115.595, 153.577 115.628, 151.227 115.802" stroke="none" fill="currentColor" fill-rule="evenodd"/>
</svg>